<svg width="42" height="42" viewBox="0 0 42 42" fill="none" xmlns="http://www.w3.org/2000/svg">
<rect x="0.5" y="0.5" width="41" height="41" rx="7.5" stroke="#797979"/>
<path d="M31 25.8995C31 29.7215 28.83 32 25.19 32H24C23.45 32 23 31.5275 23 30.95V24.8915C23 24.608 23.22 24.3665 23.49 24.3665L25.25 24.335C25.39 24.3245 25.51 24.2195 25.54 24.0725L25.89 22.067C25.8968 22.0215 25.8941 21.9751 25.8822 21.9308C25.8702 21.8865 25.8492 21.8455 25.8207 21.8106C25.7922 21.7757 25.7568 21.7476 25.717 21.7285C25.6771 21.7093 25.6338 21.6994 25.59 21.6995L23.46 21.731C23.18 21.731 22.96 21.5 22.95 21.2165L22.91 18.644C22.91 18.476 23.04 18.329 23.21 18.329L25.61 18.287C25.78 18.287 25.91 18.1505 25.91 17.972L25.87 15.452C25.87 15.2735 25.74 15.137 25.57 15.137L22.87 15.179C22.4759 15.1853 22.0868 15.2732 21.725 15.4376C21.3633 15.6021 21.0361 15.8399 20.762 16.1374C20.488 16.4349 20.2725 16.7863 20.128 17.1713C19.9835 17.5564 19.9128 17.9677 19.92 18.3815L19.97 21.269C19.98 21.563 19.76 21.794 19.48 21.8045L18.28 21.8255C18.11 21.8255 17.98 21.962 17.98 22.1405L18.01 24.1355C18.01 24.314 18.14 24.4505 18.31 24.4505L19.51 24.4295C19.79 24.4295 20.01 24.6605 20.02 24.944L20.11 30.929C20.12 31.517 19.67 32 19.11 32H16.81C13.17 32 11 29.7215 11 25.889V17.1005C11 13.2785 13.17 11 16.81 11H25.19C28.83 11 31 13.2785 31 17.1005V25.8995Z" fill="white"/>
</svg>
