<svg width="42" height="42" viewBox="0 0 42 42" fill="none" xmlns="http://www.w3.org/2000/svg">
<rect x="0.5" y="0.5" width="41" height="41" rx="7.5" stroke="#797979"/>
<path d="M25.1971 11H16.8129C13.1711 11 11 13.2785 11 17.1005V25.889C11 29.7215 13.1711 32 16.8129 32H25.1871C28.8289 32 31 29.7215 31 25.8995V17.1005C31.01 13.2785 28.8389 11 25.1971 11ZM21.005 25.574C18.8639 25.574 17.1231 23.747 17.1231 21.5C17.1231 19.253 18.8639 17.426 21.005 17.426C23.1461 17.426 24.8869 19.253 24.8869 21.5C24.8869 23.747 23.1461 25.574 21.005 25.574ZM26.9279 16.124C26.8779 16.25 26.8079 16.3655 26.7178 16.4705C26.6178 16.565 26.5077 16.6385 26.3877 16.691C26.2056 16.7721 26.0046 16.7945 25.8104 16.7552C25.6161 16.7159 25.4375 16.6168 25.2971 16.4705C25.2071 16.3655 25.137 16.25 25.087 16.124C25.0356 15.9978 25.0084 15.8622 25.007 15.725C25.007 15.5885 25.037 15.452 25.087 15.326C25.137 15.1895 25.2071 15.0845 25.2971 14.9795C25.5272 14.738 25.8774 14.6225 26.1976 14.696C26.2676 14.7065 26.3276 14.7275 26.3877 14.759C26.4477 14.78 26.5077 14.8115 26.5678 14.8535C26.6178 14.885 26.6678 14.9375 26.7178 14.9795C26.8079 15.0845 26.8779 15.1895 26.9279 15.326C26.978 15.452 27.008 15.5885 27.008 15.725C27.008 15.8615 26.978 15.998 26.9279 16.124Z" fill="white"/>
</svg>
